<?xml version="1.0" encoding="utf-8"?>
<!-- Generator: Adobe Illustrator 23.0.5, SVG Export Plug-In . SVG Version: 6.00 Build 0)  -->
<svg version="1.1" id="Capa_1" xmlns="http://www.w3.org/2000/svg" xmlns:xlink="http://www.w3.org/1999/xlink" x="0px" y="0px"
	 viewBox="0 0 595.28 841.89" style="enable-background:new 0 0 595.28 841.89;" xml:space="preserve">
<style type="text/css">
	.st0{fill:#FFFFFF;}
	.st1{fill:#999999;}
	.st2{fill:#808080;}
	.st3{fill:#666666;}
	.st4{fill:#666666;stroke:#666666;stroke-miterlimit:10;}
</style>
<rect class="st0" width="595.28" height="841.89"/>
<path class="st1" d="M417.85,233.84c6.77,13.46-1.22,32.38-9.84,43.2c-21.23,26.65-67.21,30.44-78.72,15.36
	c-6.36-8.33,1.69-17.35-5.76-27.36c-6-8.07-14.64-6.81-42-13.2c-36.55-8.54-39.88-15.17-40.8-18c-2.81-8.69,5.25-18.45,7.48-21.14
	c9.11-11.02,18.37-9.59,41.24-19.18c25.17-10.55,25.29-17.03,39.84-18.24c18.51-1.54,33.21,7.7,35.76,9.36
	c13.65,8.86,11.29,15.98,28.08,30.24C407.69,227.24,413.62,225.42,417.85,233.84z"/>
<path class="st2" d="M234.91,427.2c-12.22,14.11-6.93,28.01-18.96,37.68c-2.11,1.7-5.68,4.57-10.38,4.44
	c-4.25-0.11-7.75-2.63-17.7-14.52c-9.88-11.8-14.83-17.8-15.24-22.2c-1.13-12.07,8.94-21.33,10.92-23.16
	c2.28-2.1,10.83-9.39,23.04-9.12c16.79,0.37,32.44,14.85,30.7,23.09C236.94,425.02,236.04,425.9,234.91,427.2z"/>
<path class="st3" d="M255.6,120.31c-2.83,0.3-3.31-0.42-5.76-0.36c-12.94,0.29-18.29,19.34-37.8,36.36
	c-8.85,7.72-14.19,12.38-20.8,11.53c-14.36-1.85-27.15-28.8-20.6-47.53c2.49-7.12,5.76-7.32,16.56-20.16
	c18.77-22.31,16.68-30.94,25.92-35.28c21.62-10.15,64.77,21.86,61.56,39.24C273.46,110.72,264.78,119.33,255.6,120.31z"/>
<path class="st2" d="M347.73,718.81c5.25,16.53-29.38,40.33-34.2,43.56c-10.51,7.06-16.93,11.37-26.11,11.16
	c-13.03-0.29-22.23-9.47-35.81-23.04c-13.06-13.05-19.92-19.89-24.49-31.68c-6.28-16.2-9.68-45.34,6.13-57.6
	c12.03-9.33,29.31-4.32,54.17,2.88c17.66,5.12,23.17,10.59,25.03,12.6c7.68,8.3,5.44,13.99,13.68,24.12
	C336.49,713.54,345.23,710.94,347.73,718.81z"/>
<path class="st2" d="M502.27,498.48c2.28,1.83,14.36,11.5,15.6,23.04c2.08,19.26-26.27,41.38-43.2,36
	c-6.55-2.08-11.73-12.11-22.08-32.16c-7.14-13.83-10.72-20.89-11.04-27.84c-0.87-18.86,12.58-38.84,21.84-37.92
	c8.74,0.87,7.71,19.74,26.64,31.68C495.09,494.47,497.16,494.39,502.27,498.48z"/>
<path class="st3" d="M83.64,513.36c-0.64,3.44-3.15,5.6-4.44,6.72c-13.95,12.11-13.03,14.35-17.16,14.88
	c-10.18,1.31-22.88-11.33-21.6-21.6c0.45-3.64,3.62-7.03,9.96-13.8c6.34-6.77,9.46-7.68,11.64-7.8c2.73-0.16,5.88,0.8,6.43,0.97
	c1.94,0.6,3.76,1.47,14.2,14.2C84.17,508.77,84.07,511.02,83.64,513.36z"/>
<path class="st1" d="M530.53,100.92c1.59,44.59,3,84.41-15.11,91.92c-14.37,5.95-39.05-9.23-48.61-28.2
	c-10.15-20.16,2.31-33.61-8.52-45.84c-12.1-13.66-31.69-1.41-55.2-17.88c-5.09-3.56-18.32-12.84-18.24-24.36
	c0.14-20.75,43.41-43.47,81.96-39.36c3.98,0.42,44.09,5.28,58.68,35.04C528.57,78.54,529.95,84.79,530.53,100.92z"/>
<path class="st4" d="M558.84,343.92c0,10.62-16.88,19.1-20.49,20.9c-10.32,5.15-13.69,1.1-29.67,5.02
	c-17.54,4.3-18.95,9.82-27.12,8.4c-13.11-2.27-25.88-19.3-23.04-34.32c1.43-7.57,6.4-12.36,8.79-14.66
	c11.62-11.2,27.78-11.23,41.37-11.26c7.59-0.01,14.39-0.03,22.91,2.86C535.26,322.1,558.84,330.51,558.84,343.92z"/>
<path class="st3" d="M541.08,726.48c1.13,13.78-6.93,25.02-23.07,47.51c-12.37,17.23-18.55,25.85-28.77,29.29
	c-17.43,5.86-41.35-1.23-48.48-15.84c-7.1-14.54,8.91-23.26,12.48-57.6c2.96-28.49-6.44-37.95,2.88-53.76
	c6.69-11.34,20.6-21.84,33.12-19.68c6.11,1.05,9.5,4.72,27.81,30.73C539.86,719.54,540.76,722.62,541.08,726.48z"/>
<path class="st3" d="M363.96,565.2c0.23,5.22-5.67,9.34-9.7,12.15c-4.38,3.05-8.77,4.57-12.26,5.37
	c-10.39,2.39-24.14,1.07-25.33-3.57c-0.87-3.39,5.94-4.78,8.65-13.11c2.35-7.22-1.2-10.98,1.92-14.52
	c3.57-4.04,11.38-2.73,14.76-2.16c5.02,0.84,8.48,2.88,10.81,4.28C358.1,556.83,363.74,560.23,363.96,565.2z"/>
<path class="st2" d="M125.64,789.36c-6.44,8.29-12.4,6.3-28.08,17.64c-12.98,9.39-11.23,12.45-19.08,16.2
	c-18.17,8.7-45.53,0.93-49.51-11.55c-1.98-6.19,3.47-8.34,4.87-21.57c1.65-15.64-4.88-20.16-1.8-27.72
	c4.95-12.15,27.33-13.56,46.32-14.76c24.29-1.53,43.78-2.76,51.24,9.36C135.36,766.33,132.23,780.87,125.64,789.36z"/>
<path class="st1" d="M382.12,409.54c1.47,8.77,0.22,15.51-0.96,21.6c-1.08,5.57-5.22,26.87-13.92,27.84
	c-2.13,0.24-5.29-2.08-11.52-6.72c-3.22-2.4-9.06-6.74-12.32-10.07c-9.31-9.47-17.74-30.99-10.24-50.41
	c3.68-9.51,12.93-23.05,22.56-22.08c6.16,0.62,10.21,6.96,16.79,17.28C376.26,392.85,380.45,399.56,382.12,409.54z"/>
<path class="st2" d="M57.24,636c-0.23,3.99-0.74,16.25,7.36,27.09c12.87,17.22,36.24,15.76,40.52,15.39
	c18.1-1.57,29.61-12.67,32.04-15.12c12.67-12.78,9.59-23.5,18-44.64c14.87-37.39,40.65-44.46,36-58.32
	c-4.15-12.38-28.26-17.25-45.36-14.4c-12.66,2.11-22,9.56-40.68,24.48c-9.64,7.7-20.43,16.44-31.32,30.96
	C64.52,613.82,57.99,622.79,57.24,636z"/>
<path class="st1" d="M88.3,58.11c1.57,1.89,2.83,2.32,3.78,4.59c2.47,5.92-1.99,12.88-2.52,13.68c-5.66,8.58-18.47,11.95-28.53,9
	c-4.85-1.42-7.84-3.96-12.51-7.92c-4.93-4.18-11.57-9.82-14.76-19.35c-1.34-4.02-4.64-13.88,0.36-22.41
	c7.23-12.34,25.46-11.12,27.54-10.98c2.06,0.14,18.67,1.25,23.04,11.16C87.94,43.23,82.6,51.24,88.3,58.11z"/>
<path class="st2" d="M104.76,211.2c0.42,4.01,1.36,16.93-5.28,31.44c-3.63,7.93-11.75,25.68-27.36,27.36
	c-10.53,1.13-18.88-5.65-20.16-6.72c-5.34-4.46-6.5-8.9-10.56-18.24c-11.28-25.94-19.89-32.08-16.32-38.88
	c2.74-5.23,8.36-2.61,15.02-7.79c15.68-12.17,3.32-41.11,13.3-46.45c9.28-4.96,30.58,14.41,41.33,31.84
	C97.93,188.95,103.38,198,104.76,211.2z"/>
<path class="st1" d="M186.26,305.74c3.66,6.8-6.51,18.69-21.74,36.5c-9.14,10.69-22.97,26.59-47.52,41.76
	c-21.19,13.09-52.73,32.58-67.22,21.35c-13.41-10.4-4.56-41.21-3.98-43.17c5.72-19.2,19.37-29.82,24.39-33.62
	c9.61-7.27,18.96-10.54,37.64-14.98C152.19,303.06,181.13,296.2,186.26,305.74z"/>
</svg>
